<svg width="904" height="755" viewBox="0 0 904 755" fill="none" xmlns="http://www.w3.org/2000/svg">
<g clip-path="url(#clip0)">
<path d="M411 0H0V458.72H411V0Z" fill="url(#paint0_linear)"/>
<path d="M404.2 306.27H6.79001V448.73H404.2V306.27Z" fill="white"/>
<path d="M54.81 340.06H39.41V413.06H54.81V340.06Z" fill="#840032"/>
<g opacity="0.7">
<path opacity="0.7" d="M85.21 340.06H69.81V413.06H85.21V340.06Z" fill="#840032"/>
</g>
<g opacity="0.6">
<path opacity="0.6" d="M115.62 340.06H100.22V413.06H115.62V340.06Z" fill="#840032"/>
</g>
<g opacity="0.5">
<path opacity="0.5" d="M146.02 340.06H130.62V413.06H146.02V340.06Z" fill="#840032"/>
</g>
<g opacity="0.5">
<path opacity="0.5" d="M176.42 340.06H161.02V413.06H176.42V340.06Z" fill="#840032"/>
</g>
<g opacity="0.4">
<path opacity="0.4" d="M206.82 340.06H191.42V413.06H206.82V340.06Z" fill="#840032"/>
</g>
<g opacity="0.3">
<path opacity="0.3" d="M237.23 340.06H221.83V413.06H237.23V340.06Z" fill="#840032"/>
</g>
<path d="M347.94 413.25C368.463 413.25 385.1 396.613 385.1 376.09C385.1 355.567 368.463 338.93 347.94 338.93C327.417 338.93 310.78 355.567 310.78 376.09C310.78 396.613 327.417 413.25 347.94 413.25Z" fill="#393841"/>
<path d="M404.2 158.26H6.79001V300.72H404.2V158.26Z" fill="white"/>
<path d="M54.81 192.05H39.41V265.05H54.81V192.05Z" fill="#840032"/>
<g opacity="0.7">
<path opacity="0.7" d="M85.21 192.05H69.81V265.05H85.21V192.05Z" fill="#840032"/>
</g>
<g opacity="0.6">
<path opacity="0.6" d="M115.62 192.05H100.22V265.05H115.62V192.05Z" fill="#840032"/>
</g>
<g opacity="0.5">
<path opacity="0.5" d="M146.02 192.05H130.62V265.05H146.02V192.05Z" fill="#840032"/>
</g>
<g opacity="0.5">
<path opacity="0.5" d="M176.42 192.05H161.02V265.05H176.42V192.05Z" fill="#840032"/>
</g>
<g opacity="0.4">
<path opacity="0.4" d="M206.82 192.05H191.42V265.05H206.82V192.05Z" fill="#840032"/>
</g>
<g opacity="0.3">
<path opacity="0.3" d="M237.23 192.05H221.83V265.05H237.23V192.05Z" fill="#840032"/>
</g>
<path d="M347.94 265.25C368.463 265.25 385.1 248.613 385.1 228.09C385.1 207.567 368.463 190.93 347.94 190.93C327.417 190.93 310.78 207.567 310.78 228.09C310.78 248.613 327.417 265.25 347.94 265.25Z" fill="#393841"/>
<path d="M404.2 10.25H6.79001V152.71H404.2V10.25Z" fill="white"/>
<path d="M54.81 44.05H39.41V117.05H54.81V44.05Z" fill="#840032"/>
<g opacity="0.7">
<path opacity="0.7" d="M85.21 44.05H69.81V117.05H85.21V44.05Z" fill="#840032"/>
</g>
<g opacity="0.6">
<path opacity="0.6" d="M115.62 44.05H100.22V117.05H115.62V44.05Z" fill="#840032"/>
</g>
<g opacity="0.5">
<path opacity="0.5" d="M146.02 44.05H130.62V117.05H146.02V44.05Z" fill="#840032"/>
</g>
<g opacity="0.5">
<path opacity="0.5" d="M176.42 44.05H161.02V117.05H176.42V44.05Z" fill="#840032"/>
</g>
<g opacity="0.4">
<path opacity="0.4" d="M206.82 44.05H191.42V117.05H206.82V44.05Z" fill="#840032"/>
</g>
<g opacity="0.3">
<path opacity="0.3" d="M237.23 44.05H221.83V117.05H237.23V44.05Z" fill="#840032"/>
</g>
<path d="M347.94 120.14C370.065 120.14 388 102.205 388 80.08C388 57.9555 370.065 40.02 347.94 40.02C325.815 40.02 307.88 57.9555 307.88 80.08C307.88 102.205 325.815 120.14 347.94 120.14Z" fill="url(#paint1_linear)"/>
<path d="M347.94 269.14C370.065 269.14 388 251.205 388 229.08C388 206.955 370.065 189.02 347.94 189.02C325.815 189.02 307.88 206.955 307.88 229.08C307.88 251.205 325.815 269.14 347.94 269.14Z" fill="url(#paint2_linear)"/>
<path d="M347.94 417.14C370.065 417.14 388 399.205 388 377.08C388 354.955 370.065 337.02 347.94 337.02C325.815 337.02 307.88 354.955 307.88 377.08C307.88 399.205 325.815 417.14 347.94 417.14Z" fill="url(#paint3_linear)"/>
<path d="M347.94 117.24C368.463 117.24 385.1 100.603 385.1 80.08C385.1 59.5571 368.463 42.92 347.94 42.92C327.417 42.92 310.78 59.5571 310.78 80.08C310.78 100.603 327.417 117.24 347.94 117.24Z" fill="#393841"/>
<g opacity="0.7">
<path opacity="0.7" d="M461 158.67H467" stroke="#393841" stroke-width="4" stroke-linecap="round" stroke-linejoin="round"/>
<path opacity="0.7" d="M500.38 158.67H667.31" stroke="#393841" stroke-width="4" stroke-linecap="round" stroke-linejoin="round" stroke-dasharray="12.52 33.38"/>
<path opacity="0.7" d="M684 158.67H690V164.67" stroke="#393841" stroke-width="4" stroke-linecap="round" stroke-linejoin="round"/>
<path opacity="0.7" d="M690 196.48V311.77" stroke="#393841" stroke-width="4" stroke-linecap="round" stroke-linejoin="round" stroke-dasharray="11.93 31.8"/>
<path opacity="0.7" d="M690 327.67V333.67" stroke="#393841" stroke-width="4" stroke-linecap="round" stroke-linejoin="round"/>
</g>
<g opacity="0.7">
<path opacity="0.7" d="M367.58 611.67L361.58 611.64" stroke="#393841" stroke-width="4" stroke-linecap="round" stroke-linejoin="round"/>
<path opacity="0.7" d="M328.2 611.48L161.28 610.68" stroke="#393841" stroke-width="4" stroke-linecap="round" stroke-linejoin="round" stroke-dasharray="12.52 33.38"/>
<path opacity="0.7" d="M144.58 610.61L138.58 610.58L138.62 604.58" stroke="#393841" stroke-width="4" stroke-linecap="round" stroke-linejoin="round"/>
<path opacity="0.7" d="M138.82 573.79L139.28 504.52" stroke="#393841" stroke-width="4" stroke-linecap="round" stroke-linejoin="round" stroke-dasharray="11.55 30.79"/>
<path opacity="0.7" d="M139.38 489.12L139.42 483.12" stroke="#393841" stroke-width="4" stroke-linecap="round" stroke-linejoin="round"/>
</g>
<path d="M721.21 630.46C721.21 630.46 733.13 710.94 803.48 737.77H518.48C588.83 710.94 600.75 630.46 600.75 630.46H721.21Z" fill="#E0E0E0"/>
<path d="M804.74 737.77H517.09V754.77H804.74V737.77Z" fill="url(#paint4_linear)"/>
<path d="M803.48 737.77H518.52V750.89H803.48V737.77Z" fill="#F5F5F5"/>
<path d="M893.25 344.38H430.75C427.899 344.38 425.165 345.513 423.149 347.529C421.133 349.545 420 352.279 420 355.13V646.52C420 649.931 421.355 653.202 423.767 655.613C426.178 658.025 429.449 659.38 432.86 659.38H891.14C892.829 659.38 894.501 659.047 896.061 658.401C897.622 657.755 899.039 656.808 900.233 655.613C901.428 654.419 902.375 653.002 903.021 651.441C903.667 649.881 904 648.209 904 646.52V355.13C904 352.279 902.867 349.545 900.851 347.529C898.835 345.513 896.101 344.38 893.25 344.38V344.38Z" fill="url(#paint5_linear)"/>
<path d="M436.57 348.78H885.43C888.281 348.78 891.015 349.913 893.031 351.929C895.047 353.945 896.18 356.679 896.18 359.53V609H425.82V359.54C425.819 358.127 426.096 356.729 426.635 355.423C427.175 354.118 427.967 352.931 428.965 351.932C429.963 350.933 431.149 350.14 432.454 349.599C433.759 349.058 435.157 348.78 436.57 348.78V348.78Z" fill="white"/>
<path d="M883.32 651.92H438.68C435.269 651.92 431.998 650.565 429.587 648.153C427.175 645.742 425.82 642.471 425.82 639.06V609H896.18V639.06C896.18 642.471 894.825 645.742 892.413 648.153C890.002 650.565 886.731 651.92 883.32 651.92Z" fill="#F5F5F5"/>
<path d="M874.72 369.86H449.07V579.92H874.72V369.86Z" fill="#393841"/>
<path opacity="0.2" d="M465.91 383.8H874.99V369.79H449.34V579.85H465.91V383.8Z" fill="white"/>
</g>
<defs>
<linearGradient id="paint0_linear" x1="205.5" y1="458.72" x2="205.5" y2="0" gradientUnits="userSpaceOnUse">
<stop stop-color="#808080" stop-opacity="0.25"/>
<stop offset="0.54" stop-color="#808080" stop-opacity="0.12"/>
<stop offset="1" stop-color="#808080" stop-opacity="0.1"/>
</linearGradient>
<linearGradient id="paint1_linear" x1="28184.8" y1="9665.64" x2="28184.8" y2="3246.42" gradientUnits="userSpaceOnUse">
<stop stop-color="#808080" stop-opacity="0.25"/>
<stop offset="0.54" stop-color="#808080" stop-opacity="0.12"/>
<stop offset="1" stop-color="#808080" stop-opacity="0.1"/>
</linearGradient>
<linearGradient id="paint2_linear" x1="28184.8" y1="21752.5" x2="28184.8" y2="15333.3" gradientUnits="userSpaceOnUse">
<stop stop-color="#808080" stop-opacity="0.25"/>
<stop offset="0.54" stop-color="#808080" stop-opacity="0.12"/>
<stop offset="1" stop-color="#808080" stop-opacity="0.1"/>
</linearGradient>
<linearGradient id="paint3_linear" x1="28184.8" y1="33758.3" x2="28184.8" y2="27339.1" gradientUnits="userSpaceOnUse">
<stop stop-color="#808080" stop-opacity="0.25"/>
<stop offset="0.54" stop-color="#808080" stop-opacity="0.12"/>
<stop offset="1" stop-color="#808080" stop-opacity="0.1"/>
</linearGradient>
<linearGradient id="paint4_linear" x1="190628" y1="13568.9" x2="190628" y2="13279.9" gradientUnits="userSpaceOnUse">
<stop stop-color="#808080" stop-opacity="0.25"/>
<stop offset="0.54" stop-color="#808080" stop-opacity="0.12"/>
<stop offset="1" stop-color="#808080" stop-opacity="0.1"/>
</linearGradient>
<linearGradient id="paint5_linear" x1="392460" y1="230924" x2="392460" y2="131699" gradientUnits="userSpaceOnUse">
<stop stop-color="#808080" stop-opacity="0.25"/>
<stop offset="0.54" stop-color="#808080" stop-opacity="0.12"/>
<stop offset="1" stop-color="#808080" stop-opacity="0.1"/>
</linearGradient>
<clipPath id="clip0">
<rect width="904" height="754.77" fill="white"/>
</clipPath>
</defs>
</svg>
