<svg width="904" height="755" viewBox="0 0 904 755" fill="none" xmlns="http://www.w3.org/2000/svg">
<g clip-path="url(#clip0)">
<path d="M435 6H30V165H435V6Z" fill="url(#paint0_linear)"/>
<path d="M430.41 14H33V156.46H430.41V14Z" fill="white"/>
<path d="M430.41 14H33V156.46H430.41V14Z" fill="white"/>
<path d="M83.81 47.05H68.41V120.05H83.81V47.05Z" fill="#840032"/>
<g opacity="0.7">
<path opacity="0.7" d="M114.21 47.05H98.81V120.05H114.21V47.05Z" fill="#840032"/>
</g>
<g opacity="0.6">
<path opacity="0.6" d="M144.62 47.05H129.22V120.05H144.62V47.05Z" fill="#840032"/>
</g>
<g opacity="0.5">
<path opacity="0.5" d="M175.02 47.05H159.62V120.05H175.02V47.05Z" fill="#840032"/>
</g>
<g opacity="0.5">
<path opacity="0.5" d="M205.42 47.05H190.02V120.05H205.42V47.05Z" fill="#840032"/>
</g>
<g opacity="0.4">
<path opacity="0.4" d="M235.82 47.05H220.42V120.05H235.82V47.05Z" fill="#840032"/>
</g>
<g opacity="0.3">
<path opacity="0.3" d="M266.23 47.05H250.83V120.05H266.23V47.05Z" fill="#840032"/>
</g>
<path d="M435 162H30V321H435V162Z" fill="url(#paint1_linear)"/>
<path d="M430.41 170H33V312.46H430.41V170Z" fill="white"/>
<path d="M430.41 170H33V312.46H430.41V170Z" fill="white"/>
<path d="M83.81 203.05H68.41V276.05H83.81V203.05Z" fill="#840032"/>
<g opacity="0.7">
<path opacity="0.7" d="M114.21 203.05H98.81V276.05H114.21V203.05Z" fill="#840032"/>
</g>
<g opacity="0.6">
<path opacity="0.6" d="M144.62 203.05H129.22V276.05H144.62V203.05Z" fill="#840032"/>
</g>
<g opacity="0.5">
<path opacity="0.5" d="M175.02 203.05H159.62V276.05H175.02V203.05Z" fill="#840032"/>
</g>
<g opacity="0.5">
<path opacity="0.5" d="M205.42 203.05H190.02V276.05H205.42V203.05Z" fill="#840032"/>
</g>
<g opacity="0.4">
<path opacity="0.4" d="M235.82 203.05H220.42V276.05H235.82V203.05Z" fill="#840032"/>
</g>
<g opacity="0.3">
<path opacity="0.3" d="M266.23 203.05H250.83V276.05H266.23V203.05Z" fill="#840032"/>
</g>
<path d="M376.94 123.14C399.065 123.14 417 105.205 417 83.08C417 60.9555 399.065 43.02 376.94 43.02C354.815 43.02 336.88 60.9555 336.88 83.08C336.88 105.205 354.815 123.14 376.94 123.14Z" fill="url(#paint2_linear)"/>
<path d="M377.16 120.32C397.683 120.32 414.32 103.683 414.32 83.16C414.32 62.6371 397.683 46 377.16 46C356.637 46 340 62.6371 340 83.16C340 103.683 356.637 120.32 377.16 120.32Z" fill="#4D4D4D"/>
<path d="M374.16 276.32C394.683 276.32 411.32 259.683 411.32 239.16C411.32 218.637 394.683 202 374.16 202C353.637 202 337 218.637 337 239.16C337 259.683 353.637 276.32 374.16 276.32Z" fill="#4D4D4D"/>
<g opacity="0.7">
<path opacity="0.7" d="M461 158.67H467" stroke="#6C63FF" stroke-width="4" stroke-linecap="round" stroke-linejoin="round"/>
<path opacity="0.7" d="M500.38 158.67H667.31" stroke="#6C63FF" stroke-width="4" stroke-linecap="round" stroke-linejoin="round" stroke-dasharray="12.52 33.38"/>
<path opacity="0.7" d="M684 158.67H690V164.67" stroke="#6C63FF" stroke-width="4" stroke-linecap="round" stroke-linejoin="round"/>
<path opacity="0.7" d="M690 196.48V311.77" stroke="#6C63FF" stroke-width="4" stroke-linecap="round" stroke-linejoin="round" stroke-dasharray="11.93 31.8"/>
<path opacity="0.7" d="M690 327.67V333.67" stroke="#6C63FF" stroke-width="4" stroke-linecap="round" stroke-linejoin="round"/>
</g>
<g opacity="0.7">
<path opacity="0.7" d="M397 609L389.978 608.936" stroke="#6C63FF" stroke-width="4" stroke-linecap="round" stroke-linejoin="round"/>
<path opacity="0.7" d="M350.913 608.594L155.566 606.882" stroke="#6C63FF" stroke-width="4" stroke-linecap="round" stroke-linejoin="round" stroke-dasharray="12.52 33.38"/>
<path opacity="0.7" d="M136.022 606.732L129 606.668L129.047 593.833" stroke="#6C63FF" stroke-width="4" stroke-linecap="round" stroke-linejoin="round"/>
<path opacity="0.7" d="M129.281 527.965L129.819 379.78" stroke="#6C63FF" stroke-width="4" stroke-linecap="round" stroke-linejoin="round" stroke-dasharray="11.55 30.79"/>
<path opacity="0.7" d="M129.936 346.835L129.982 334" stroke="#6C63FF" stroke-width="4" stroke-linecap="round" stroke-linejoin="round"/>
</g>
<path d="M721.21 630.46C721.21 630.46 733.13 710.94 803.48 737.77H518.48C588.83 710.94 600.75 630.46 600.75 630.46H721.21Z" fill="#E0E0E0"/>
<path d="M804.74 737.77H517.09V754.77H804.74V737.77Z" fill="url(#paint3_linear)"/>
<path d="M803.48 737.77H518.52V750.89H803.48V737.77Z" fill="#F5F5F5"/>
<path d="M893.25 344.38H430.75C427.899 344.38 425.165 345.513 423.149 347.529C421.133 349.545 420 352.279 420 355.13V646.52C420 649.931 421.355 653.202 423.767 655.613C426.178 658.025 429.449 659.38 432.86 659.38H891.14C892.829 659.38 894.501 659.047 896.061 658.401C897.622 657.755 899.039 656.808 900.233 655.613C901.428 654.419 902.375 653.002 903.021 651.441C903.667 649.881 904 648.209 904 646.52V355.13C904 352.279 902.867 349.545 900.851 347.529C898.835 345.513 896.101 344.38 893.25 344.38V344.38Z" fill="url(#paint4_linear)"/>
<path d="M436.57 348.78H885.43C888.281 348.78 891.015 349.913 893.031 351.929C895.047 353.945 896.18 356.679 896.18 359.53V609H425.82V359.54C425.819 358.127 426.096 356.729 426.635 355.423C427.175 354.118 427.967 352.931 428.965 351.932C429.963 350.933 431.149 350.14 432.454 349.599C433.759 349.058 435.157 348.78 436.57 348.78V348.78Z" fill="white"/>
<path d="M883.32 651.92H438.68C435.269 651.92 431.998 650.565 429.587 648.153C427.175 645.742 425.82 642.471 425.82 639.06V609H896.18V639.06C896.18 642.471 894.825 645.742 892.413 648.153C890.002 650.565 886.731 651.92 883.32 651.92Z" fill="#F5F5F5"/>
<path d="M874.72 369.86H449.07V579.92H874.72V369.86Z" fill="#4D4D54"/>
<path opacity="0.2" d="M465.91 383.8H874.99V369.79H449.34V579.85H465.91V383.8Z" fill="white"/>
</g>
<defs>
<linearGradient id="paint0_linear" x1="232.5" y1="165" x2="232.5" y2="6" gradientUnits="userSpaceOnUse">
<stop stop-color="#808080" stop-opacity="0.25"/>
<stop offset="0.54" stop-color="#808080" stop-opacity="0.12"/>
<stop offset="1" stop-color="#808080" stop-opacity="0.1"/>
</linearGradient>
<linearGradient id="paint1_linear" x1="232.5" y1="321" x2="232.5" y2="162" gradientUnits="userSpaceOnUse">
<stop stop-color="#808080" stop-opacity="0.25"/>
<stop offset="0.54" stop-color="#808080" stop-opacity="0.12"/>
<stop offset="1" stop-color="#808080" stop-opacity="0.1"/>
</linearGradient>
<linearGradient id="paint2_linear" x1="28213.8" y1="9668.64" x2="28213.8" y2="3249.42" gradientUnits="userSpaceOnUse">
<stop stop-color="#808080" stop-opacity="0.25"/>
<stop offset="0.54" stop-color="#808080" stop-opacity="0.12"/>
<stop offset="1" stop-color="#808080" stop-opacity="0.1"/>
</linearGradient>
<linearGradient id="paint3_linear" x1="190628" y1="13568.9" x2="190628" y2="13279.9" gradientUnits="userSpaceOnUse">
<stop stop-color="#808080" stop-opacity="0.25"/>
<stop offset="0.54" stop-color="#808080" stop-opacity="0.12"/>
<stop offset="1" stop-color="#808080" stop-opacity="0.1"/>
</linearGradient>
<linearGradient id="paint4_linear" x1="392460" y1="230924" x2="392460" y2="131699" gradientUnits="userSpaceOnUse">
<stop stop-color="#808080" stop-opacity="0.25"/>
<stop offset="0.54" stop-color="#808080" stop-opacity="0.12"/>
<stop offset="1" stop-color="#808080" stop-opacity="0.1"/>
</linearGradient>
<clipPath id="clip0">
<rect width="904" height="754.77" fill="white"/>
</clipPath>
</defs>
</svg>
